{
	"asset":{
		"version":"2.0",
		"generator":"SideFX Software Houdini 19.5.773",
		"copyright":""
	},
	"scenes":[{
		"nodes":[0]
	}],
	"nodes":[{
		"name":"Scene 0",
		"children":[1]
	},
	{
		"name":"OUT_C",
		"mesh":0,
		"translation":[0.0,
		0.0,
		0.0],
		"rotation":[0.0,
		0.0,
		0.0,
		-1.0],
		"scale":[1000.0,
		1000.0,
		1000.0]
	}],
	"meshes":[{
		"name":"OUT_C",
		"primitives":[{
			"attributes":{
				"POSITION":1,
				"NORMAL":2
			},
			"indices":0,
			"material":0
		}]
	}],
	"accessors":[{
		"bufferView":0,
		"type":"SCALAR",
		"componentType":5123,
		"count":21888,
		"byteOffset":0,
		"min":[0],
		"max":[21887]
	},
	{
		"bufferView":1,
		"type":"VEC3",
		"componentType":5126,
		"count":21888,
		"byteOffset":0,
		"min":[-0.00022700060799252242,
		-0.0048210509121418,
		-0.00023611496726516634],
		"max":[0.012525335885584355,
		0.008227081969380379,
		0.0019976822659373285]
	},
	{
		"bufferView":1,
		"type":"VEC3",
		"componentType":5126,
		"count":21888,
		"byteOffset":12,
		"min":[-0.9999154210090637,
		-0.9999771118164063,
		-0.9999996423721314],
		"max":[0.9996830821037293,
		0.9999994039535523,
		0.9999995231628418]
	}],
	"bufferViews":[{
		"buffer":0,
		"byteOffset":0,
		"byteLength":43776,
		"target":34963
	},
	{
		"buffer":0,
		"byteOffset":43776,
		"byteLength":525312,
		"target":34962,
		"byteStride":24
	}],
	"buffers":[{
		"uri":"data:application/octet-stream;base64,",
		"byteLength":569088
	}],
	"materials":[{
		"pbrMetallicRoughness":{
			"baseColorFactor":[0.21404114365577699,
			0.21404114365577699,
			0.21404114365577699,
			1.0],
			"metallicFactor":0.0,
			"roughnessFactor":0.20000000298023225
		},
		"emissiveFactor":[0.0,
		0.0,
		0.0],
		"alphaMode":"OPAQUE",
		"doubleSided":false,
		"name":"Mat"
	}]
}