{
	"asset":{
		"version":"2.0",
		"generator":"SideFX Software Houdini 19.5.773"
	},
	"scenes":[{
		"nodes":[0]
	}],
	"nodes":[{
		"name":"OUT_C",
		"mesh":0
	}],
	"meshes":[{
		"name":"OUT_C",
		"primitives":[{
			"attributes":{
				"POSITION":1,
				"NORMAL":2
			},
			"indices":0
		}]
	}],
	"accessors":[{
		"bufferView":0,
		"type":"SCALAR",
		"componentType":5123,
		"max":[21887],
		"count":21888,
		"byteOffset":0,
		"min":[0]
	},
	{
		"bufferView":1,
		"type":"VEC3",
		"componentType":5126,
		"max":[0.012525335885584355,
		0.008227081969380379,
		0.0019976822659373285],
		"count":21888,
		"byteOffset":0,
		"min":[-0.00022700060799252242,
		-0.0048210509121418,
		-0.00023611496726516634]
	},
	{
		"bufferView":1,
		"type":"VEC3",
		"componentType":5126,
		"max":[0.9996829628944397,
		0.9999992847442627,
		0.9999995231628418],
		"count":21888,
		"byteOffset":12,
		"min":[-0.9999153017997742,
		-0.9999768733978272,
		-0.9999996423721314]
	}],
	"bufferViews":[{
		"buffer":0,
		"byteOffset":0,
		"byteLength":43776,
		"target":34963
	},
	{
		"buffer":0,
		"byteOffset":43776,
		"byteLength":525312,
		"target":34962,
		"byteStride":24
	}],
	"buffers":[{
		"uri":"data:application/octet-stream;base64,",
		"byteLength":569088
	}]
}