{
  "accessors": [
    {
      "bufferView": 2,
      "componentType": 5126,
      "count": 38,
      "max": [
        0.1898690015077591,
        0.2333340048789978,
        0.1677439957857132
      ],
      "min": [
        -0.1898690015077591,
        0.15219800174236298,
        -0.1677439957857132
      ],
      "type": "VEC3"
    },
    {
      "bufferView": 2,
      "byteOffset": 456,
      "componentType": 5126,
      "count": 38,
      "max": [
        0.9764760136604309,
        0.2529639005661011,
        0.9668350219726563
      ],
      "min": [
        -0.97647625207901,
        0.19716699421405792,
        -0.9668350219726563
      ],
      "type": "VEC3"
    },
    {
      "bufferView": 3,
      "componentType": 5126,
      "count": 38,
      "max": [
        0.9850369691848755,
        0.28475797176361084,
        0.9999992251396179,
        1.0
      ],
      "min": [
        -0.985038697719574,
        -0.2844705581665039,
        -0.9616211652755737,
        1.0
      ],
      "type": "VEC4"
    },
    {
      "bufferView": 1,
      "componentType": 5126,
      "count": 38,
      "max": [
        0.5242130160331726,
        0.6527780294418335
      ],
      "min": [
        0.019999999552965164,
        0.6463630199432373
      ],
      "type": "VEC2"
    },
    {
      "bufferView": 0,
      "componentType": 5125,
      "count": 108,
      "type": "SCALAR"
    },
    {
      "bufferView": 2,
      "byteOffset": 912,
      "componentType": 5126,
      "count": 301,
      "max": [
        0.18556499481201172,
        1.0,
        0.26381000876426697
      ],
      "min": [
        -0.26787999272346497,
        -0.9026389718055725,
        -0.26381000876426697
      ],
      "type": "VEC3"
    },
    {
      "bufferView": 2,
      "byteOffset": 4524,
      "componentType": 5126,
      "count": 301,
      "max": [
        0.9996082186698914,
        0.9868424534797668,
        0.9848047494888306
      ],
      "min": [
        -0.9999969005584717,
        -0.8815644383430481,
        -0.984804630279541
      ],
      "type": "VEC3"
    },
    {
      "bufferView": 3,
      "byteOffset": 608,
      "componentType": 5126,
      "count": 301,
      "max": [
        0.9861514568328857,
        0.8870048522949219,
        1.0,
        1.0
      ],
      "min": [
        -0.9861519932746887,
        -0.9996082186698914,
        -0.9998784065246582,
        1.0
      ],
      "type": "VEC4"
    },
    {
      "bufferView": 1,
      "byteOffset": 304,
      "componentType": 5126,
      "count": 301,
      "max": [
        0.9615439772605896,
        0.9069290161132813
      ],
      "min": [
        0.019999999552965164,
        0.03789610043168068
      ],
      "type": "VEC2"
    },
    {
      "bufferView": 0,
      "byteOffset": 432,
      "componentType": 5125,
      "count": 1398,
      "type": "SCALAR"
    },
    {
      "bufferView": 2,
      "byteOffset": 8136,
      "componentType": 5126,
      "count": 297,
      "max": [
        0.2685050070285797,
        0.21874399483203888,
        0.26442599296569824
      ],
      "min": [
        -0.2685050070285797,
        -1.0,
        -0.26442599296569824
      ],
      "type": "VEC3"
    },
    {
      "bufferView": 2,
      "byteOffset": 11700,
      "componentType": 5126,
      "count": 297,
      "max": [
        0.9999969005584717,
        0.2529639005661011,
        0.9848047494888306
      ],
      "min": [
        -0.9999969005584717,
        -1.0,
        -0.9848047494888306
      ],
      "type": "VEC3"
    },
    {
      "bufferView": 3,
      "byteOffset": 5424,
      "componentType": 5126,
      "count": 297,
      "max": [
        0.9861146807670593,
        0.5602422952651978,
        1.0,
        1.0
      ],
      "min": [
        -0.986125111579895,
        -0.5602412819862366,
        -1.0,
        1.0
      ],
      "type": "VEC4"
    },
    {
      "bufferView": 1,
      "byteOffset": 2712,
      "componentType": 5126,
      "count": 297,
      "max": [
        0.9800000190734863,
        0.6527079939842224
      ],
      "min": [
        0.019999999552965164,
        0.019999999552965164
      ],
      "type": "VEC2"
    },
    {
      "bufferView": 0,
      "byteOffset": 6024,
      "componentType": 5125,
      "count": 1290,
      "type": "SCALAR"
    }
  ],
  "asset": {
    "extras": {
      "author": "ArchViz (https://sketchfab.com/Archivz)",
      "license": "CC-BY-4.0 (http://creativecommons.org/licenses/by/4.0/)",
      "source": "https://sketchfab.com/3d-models/champagne-9f072cd2ae994511b107c40b05c72b1d",
      "title": "Champagne"
    },
    "generator": "Sketchfab-13.74.0",
    "version": "2.0"
  },
  "bufferViews": [
    {
      "buffer": 0,
      "byteLength": 11184,
      "name": "floatBufferViews",
      "target": 34963
    },
    {
      "buffer": 0,
      "byteLength": 5088,
      "byteOffset": 11184,
      "byteStride": 8,
      "name": "floatBufferViews",
      "target": 34962
    },
    {
      "buffer": 0,
      "byteLength": 15264,
      "byteOffset": 16272,
      "byteStride": 12,
      "name": "floatBufferViews",
      "target": 34962
    },
    {
      "buffer": 0,
      "byteLength": 10176,
      "byteOffset": 31536,
      "byteStride": 16,
      "name": "floatBufferViews",
      "target": 34962
    }
  ],
  "buffers": [
    {
      "byteLength": 41712,
      "uri": "tf.bin"
    }
  ],
  "images": [
    {
      "uri": "textures/bouteille_baseColor.jpeg"
    },
    {
      "uri": "textures/bouteille_metallicRoughness.png"
    },
    {
      "uri": "textures/bouteille_normal.png"
    },
    {
      "uri": "textures/etiquette_baseColor.jpeg"
    },
    {
      "uri": "textures/etiquette_metallicRoughness.png"
    },
    {
      "uri": "textures/etiquette_normal.png"
    },
    {
      "uri": "textures/etiquettedorrure_baseColor.jpeg"
    },
    {
      "uri": "textures/etiquettedorrure_metallicRoughness.png"
    },
    {
      "uri": "textures/etiquettedorrure_normal.png"
    }
  ],
  "materials": [
    {
      "doubleSided": true,
      "name": "bouteille",
      "normalTexture": {
        "index": 2
      },
      "occlusionTexture": {
        "index": 1
      },
      "pbrMetallicRoughness": {
        "baseColorTexture": {
          "index": 0
        },
        "metallicRoughnessTexture": {
          "index": 1
        }
      }
    },
    {
      "doubleSided": true,
      "name": "etiquette",
      "normalTexture": {
        "index": 5
      },
      "occlusionTexture": {
        "index": 4
      },
      "pbrMetallicRoughness": {
        "baseColorTexture": {
          "index": 3
        },
        "metallicRoughnessTexture": {
          "index": 4
        }
      }
    },
    {
      "doubleSided": true,
      "name": "etiquettedorrure",
      "normalTexture": {
        "index": 8
      },
      "occlusionTexture": {
        "index": 7
      },
      "pbrMetallicRoughness": {
        "baseColorTexture": {
          "index": 6
        },
        "metallicRoughnessTexture": {
          "index": 7
        }
      }
    }
  ],
  "meshes": [
    {
      "name": "defaultMaterial",
      "primitives": [
        {
          "attributes": {
            "NORMAL": 1,
            "POSITION": 0,
            "TANGENT": 2,
            "TEXCOORD_0": 3
          },
          "indices": 4,
          "material": 2,
          "mode": 4
        }
      ]
    },
    {
      "name": "defaultMaterial",
      "primitives": [
        {
          "attributes": {
            "NORMAL": 6,
            "POSITION": 5,
            "TANGENT": 7,
            "TEXCOORD_0": 8
          },
          "indices": 9,
          "material": 1,
          "mode": 4
        }
      ]
    },
    {
      "name": "defaultMaterial",
      "primitives": [
        {
          "attributes": {
            "NORMAL": 11,
            "POSITION": 10,
            "TANGENT": 12,
            "TEXCOORD_0": 13
          },
          "indices": 14,
          "material": 0,
          "mode": 4
        }
      ]
    }
  ],
  "nodes": [
    {
      "children": [
        1
      ],
      "matrix": [
        1.0,
        0.0,
        0.0,
        0.0,
        0.0,
        2.220446049250313e-16,
        -1.0,
        0.0,
        0.0,
        1.0,
        2.220446049250313e-16,
        0.0,
        0.0,
        0.0,
        0.0,
        1.0
      ],
      "name": "Sketchfab_model"
    },
    {
      "children": [
        2,
        4,
        6
      ],
      "matrix": [
        1.0,
        0.0,
        0.0,
        0.0,
        0.0,
        -4.371139006309477e-08,
        0.999999999999999,
        0.0,
        0.0,
        -0.999999999999999,
        -4.371139006309477e-08,
        0.0,
        0.0,
        0.0,
        0.0,
        1.0
      ],
      "name": "Collada visual scene group"
    },
    {
      "children": [
        3
      ],
      "name": "Cylinder004"
    },
    {
      "mesh": 0,
      "name": "defaultMaterial"
    },
    {
      "children": [
        5
      ],
      "name": "Cylinder004"
    },
    {
      "mesh": 1,
      "name": "defaultMaterial"
    },
    {
      "children": [
        7
      ],
      "name": "Cylinder004"
    },
    {
      "mesh": 2,
      "name": "defaultMaterial"
    }
  ],
  "samplers": [
    {
      "magFilter": 9729,
      "minFilter": 9987,
      "wrapS": 10497,
      "wrapT": 10497
    }
  ],
  "scene": 0,
  "scenes": [
    {
      "name": "Sketchfab_Scene",
      "nodes": [
        0
      ]
    }
  ],
  "textures": [
    {
      "sampler": 0,
      "source": 0
    },
    {
      "sampler": 0,
      "source": 1
    },
    {
      "sampler": 0,
      "source": 2
    },
    {
      "sampler": 0,
      "source": 3
    },
    {
      "sampler": 0,
      "source": 4
    },
    {
      "sampler": 0,
      "source": 5
    },
    {
      "sampler": 0,
      "source": 6
    },
    {
      "sampler": 0,
      "source": 7
    },
    {
      "sampler": 0,
      "source": 8
    }
  ]
}
