{
	"asset":{
		"version":"2.0",
		"generator":"SideFX Software Houdini 19.5.773",
		"copyright":""
	},
	"scenes":[{
		"nodes":[0]
	}],
	"nodes":[{
		"name":"Platonic",
		"mesh":0,
		"translation":[0.0,
		6.254860877990723,
		0.0],
		"rotation":[0.0,
		0.0,
		0.0,
		-1.0],
		"scale":[1.0,
		1.0,
		1.0]
	}],
	"meshes":[{
		"name":"Platonic",
		"primitives":[{
			"attributes":{
				"POSITION":1,
				"NORMAL":2,
				"TEXCOORD_0":3
			},
			"indices":0,
			"material":0
		}]
	}],
	"accessors":[{
		"min":[0],
		"bufferView":0,
		"type":"SCALAR",
		"max":[59],
		"componentType":5123,
		"count":60,
		"byteOffset":0
	},
	{
		"min":[-4.159688949584961,
		-4.159688949584961,
		-4.159688949584961],
		"bufferView":1,
		"type":"VEC3",
		"max":[4.159688949584961,
		4.159688949584961,
		4.159688949584961],
		"componentType":5126,
		"count":60,
		"byteOffset":0
	},
	{
		"min":[-0.9341735243797302,
		-0.9341735243797302,
		-0.9341735243797302],
		"bufferView":1,
		"type":"VEC3",
		"max":[0.9341735243797302,
		0.9341735243797302,
		0.9341735243797302],
		"componentType":5126,
		"count":60,
		"byteOffset":12
	},
	{
		"min":[0.0,
		0.0],
		"bufferView":1,
		"type":"VEC2",
		"max":[1.0,
		0.8659999370574951],
		"componentType":5126,
		"count":60,
		"byteOffset":24
	}],
	"bufferViews":[{
		"buffer":0,
		"byteOffset":0,
		"byteLength":120,
		"target":34963
	},
	{
		"buffer":0,
		"byteOffset":120,
		"byteLength":1920,
		"target":34962,
		"byteStride":32
	}],
	"buffers":[{
		"uri":"data:application/octet-stream;base64,",
		"byteLength":2040
	}],
	"materials":[{
		"pbrMetallicRoughness":{
			"baseColorFactor":[0.21404114365577699,
			0.21404114365577699,
			0.21404114365577699,
			1.0],
			"metallicFactor":0.0,
			"roughnessFactor":0.20000000298023225
		},
		"emissiveFactor":[0.0,
		0.0,
		0.0],
		"alphaMode":"OPAQUE",
		"doubleSided":false,
		"name":"Mat.1"
	}]
}