{
	"asset":{
		"version":"2.0",
		"generator":"SideFX Software Houdini 19.5.773",
		"copyright":""
	},
	"scenes":[{
		"nodes":[0]
	}],
	"nodes":[{
		"name":"OSG_Scene",
		"children":[1]
	},
	{
		"name":"RootNode (gltf orientation matrix)",
		"translation":[0.0,
		0.0,
		0.0],
		"rotation":[0.7071067690849304,
		0.0,
		0.0,
		-0.7071067690849304],
		"scale":[1.0,
		1.0,
		1.0],
		"children":[2]
	},
	{
		"name":"RootNode (model correction matrix)",
		"children":[3]
	},
	{
		"name":"magnemite animado 2.fbx",
		"translation":[0.0,
		0.0,
		0.0],
		"rotation":[-0.7071067690849304,
		0.0,
		0.0,
		-0.7071067690849304],
		"scale":[1.0,
		1.0,
		1.0],
		"children":[4]
	},
	{
		"name":"Node_3",
		"children":[5]
	},
	{
		"name":"RootNode",
		"children":[6]
	},
	{
		"name":"Node_5",
		"children":[7,
		8,
		9]
	},
	{
		"name":"Mesh",
		"children":[10]
	},
	{
		"name":"Mesh",
		"mesh":0
	},
	{
		"name":"cuerpo",
		"children":[11,
		12,
		13]
	},
	{
		"name":"Mesh",
		"mesh":1
	},
	{
		"name":"ojo",
		"translation":[0.0,
		5.987430095672607,
		1.574657917022705],
		"rotation":[0.7071067690849304,
		-8.659560603426554e-17,
		8.659560603426554e-17,
		0.7071067690849304],
		"scale":[1.5072540044784547,
		1.4791151285171509,
		1.5072542428970338],
		"children":[14]
	},
	{
		"name":"torniglio",
		"translation":[-1.7881393432617188e-7,
		9.97221851348877,
		-2.384185791015625e-7],
		"rotation":[0.0,
		0.0,
		0.0,
		-1.0],
		"scale":[1.0,
		1.0,
		1.0],
		"children":[15]
	},
	{
		"name":"torniglio_team",
		"translation":[-1.1774451732635499,
		4.260800361633301,
		2.4956674575805666],
		"rotation":[0.8366996049880981,
		-0.0778207778930664,
		0.07888264209032059,
		0.5363349914550781],
		"scale":[0.5697518587112427,
		0.5697518587112427,
		0.5697518587112427],
		"children":[16]
	},
	{
		"name":"ojo_blinn2_0",
		"mesh":2
	},
	{
		"name":"torniglio_blinn2_0",
		"mesh":3
	},
	{
		"name":"torniglio_team_blinn2_0",
		"mesh":4
	}],
	"meshes":[{
		"name":"Mesh",
		"primitives":[{
			"attributes":{
				"POSITION":1,
				"NORMAL":2,
				"TEXCOORD_0":3
			},
			"indices":0,
			"material":0
		}]
	},
	{
		"name":"Mesh",
		"primitives":[{
			"attributes":{
				"POSITION":5,
				"NORMAL":6,
				"TEXCOORD_0":7
			},
			"indices":4,
			"material":1
		}]
	},
	{
		"name":"ojo_blinn2_0",
		"primitives":[{
			"attributes":{
				"POSITION":17,
				"NORMAL":18,
				"TEXCOORD_0":19
			},
			"indices":16,
			"material":2
		}]
	},
	{
		"name":"torniglio_blinn2_0",
		"primitives":[{
			"attributes":{
				"POSITION":21,
				"NORMAL":22,
				"TEXCOORD_0":23
			},
			"indices":20,
			"material":3
		}]
	},
	{
		"name":"torniglio_team_blinn2_0",
		"primitives":[{
			"attributes":{
				"POSITION":25,
				"NORMAL":26,
				"TEXCOORD_0":27
			},
			"indices":24,
			"material":4
		}]
	}],
	"accessors":[{
		"min":[0],
		"bufferView":0,
		"type":"SCALAR",
		"max":[2219],
		"componentType":5123,
		"count":2220,
		"byteOffset":0
	},
	{
		"min":[-2.8559718132019045,
		3.2124760150909426,
		-2.8559725284576418],
		"bufferView":1,
		"type":"VEC3",
		"max":[2.855971097946167,
		8.924418449401856,
		2.6009621620178224],
		"componentType":5126,
		"count":2220,
		"byteOffset":0
	},
	{
		"min":[-1.0,
		-1.0,
		-1.0],
		"bufferView":1,
		"type":"VEC3",
		"max":[1.0,
		1.0,
		0.9847423434257507],
		"componentType":5126,
		"count":2220,
		"byteOffset":12
	},
	{
		"min":[0.2975311279296875,
		0.27553558349609377],
		"bufferView":1,
		"type":"VEC2",
		"max":[0.700531005859375,
		0.5580291748046875],
		"componentType":5126,
		"count":2220,
		"byteOffset":24
	},
	{
		"min":[0],
		"bufferView":2,
		"type":"SCALAR",
		"max":[935],
		"componentType":5123,
		"count":936,
		"byteOffset":0
	},
	{
		"min":[-6.77100133895874,
		4.192429542541504,
		-0.5000001192092896],
		"bufferView":3,
		"type":"VEC3",
		"max":[6.77100133895874,
		7.69243049621582,
		0.5000001192092896],
		"componentType":5126,
		"count":936,
		"byteOffset":0
	},
	{
		"min":[-1.0,
		-1.0,
		-1.0],
		"bufferView":3,
		"type":"VEC3",
		"max":[1.0,
		1.0,
		1.0],
		"componentType":5126,
		"count":936,
		"byteOffset":12
	},
	{
		"min":[0.14503860473632813,
		0.11033248901367188],
		"bufferView":3,
		"type":"VEC2",
		"max":[0.9209747314453125,
		0.8488006591796875],
		"componentType":5126,
		"count":936,
		"byteOffset":24
	},
	{
		"min":[0.0],
		"bufferView":4,
		"type":"SCALAR",
		"max":[3.0],
		"componentType":5126,
		"count":68,
		"byteOffset":0
	},
	{
		"min":[-6.577489376068115,
		5.986473560333252,
		1.574657917022705],
		"bufferView":4,
		"type":"VEC3",
		"max":[0.0013717254623770714,
		10.575399398803711,
		1.574657917022705],
		"componentType":5126,
		"count":68,
		"byteOffset":272
	},
	{
		"min":[0.0],
		"bufferView":5,
		"type":"SCALAR",
		"max":[3.0],
		"componentType":5126,
		"count":63,
		"byteOffset":0
	},
	{
		"min":[-0.7072834968566895,
		-0.00015847680333536118,
		-0.0744389072060585,
		-0.7881522178649902],
		"bufferView":5,
		"type":"VEC4",
		"max":[-0.6031697988510132,
		0.09726813435554505,
		0.00015855605306569487,
		-0.7069299817085266],
		"componentType":5126,
		"count":63,
		"byteOffset":252
	},
	{
		"min":[0.0],
		"bufferView":6,
		"type":"SCALAR",
		"max":[3.0],
		"componentType":5126,
		"count":68,
		"byteOffset":0
	},
	{
		"min":[-6.577489376068115,
		9.971261978149414,
		-2.384185791015625e-7],
		"bufferView":6,
		"type":"VEC3",
		"max":[0.0013715466484427453,
		14.560187339782715,
		-2.384185791015625e-7],
		"componentType":5126,
		"count":68,
		"byteOffset":272
	},
	{
		"min":[0.0],
		"bufferView":7,
		"type":"SCALAR",
		"max":[3.0],
		"componentType":5126,
		"count":68,
		"byteOffset":0
	},
	{
		"min":[-7.754933834075928,
		4.259843349456787,
		2.4956674575805666],
		"bufferView":7,
		"type":"VEC3",
		"max":[-1.176073431968689,
		8.848769187927246,
		2.4956674575805666],
		"componentType":5126,
		"count":68,
		"byteOffset":272
	},
	{
		"min":[0],
		"bufferView":8,
		"type":"SCALAR",
		"max":[2279],
		"componentType":5123,
		"count":2280,
		"byteOffset":0
	},
	{
		"min":[-1.000000238418579,
		-1.0,
		-1.0000004768371583],
		"bufferView":9,
		"type":"VEC3",
		"max":[1.0,
		1.0,
		1.0000001192092896],
		"componentType":5126,
		"count":2280,
		"byteOffset":0
	},
	{
		"min":[-1.0,
		-1.0,
		-1.0],
		"bufferView":9,
		"type":"VEC3",
		"max":[1.0,
		1.0,
		1.0],
		"componentType":5126,
		"count":2280,
		"byteOffset":12
	},
	{
		"min":[0.4042510986328125,
		0.07342910766601563],
		"bufferView":9,
		"type":"VEC2",
		"max":[0.5829315185546875,
		0.252105712890625],
		"componentType":5126,
		"count":2280,
		"byteOffset":24
	},
	{
		"min":[0],
		"bufferView":10,
		"type":"SCALAR",
		"max":[11519],
		"componentType":5123,
		"count":11520,
		"byteOffset":0
	},
	{
		"min":[-1.297445297241211,
		-1.3974108695983887,
		-1.277778148651123],
		"bufferView":11,
		"type":"VEC3",
		"max":[1.297445297241211,
		1.3974108695983887,
		1.277778148651123],
		"componentType":5126,
		"count":11520,
		"byteOffset":0
	},
	{
		"min":[-1.0,
		-1.0,
		-1.0],
		"bufferView":11,
		"type":"VEC3",
		"max":[1.0,
		1.0,
		1.0],
		"componentType":5126,
		"count":11520,
		"byteOffset":12
	},
	{
		"min":[0.40966033935546877,
		0.697509765625],
		"bufferView":11,
		"type":"VEC2",
		"max":[0.9841461181640625,
		0.9715423583984375],
		"componentType":5126,
		"count":11520,
		"byteOffset":24
	},
	{
		"min":[0],
		"bufferView":12,
		"type":"SCALAR",
		"max":[23039],
		"componentType":5123,
		"count":23040,
		"byteOffset":0
	},
	{
		"min":[-2.0541346073150636,
		-2.6589465141296388,
		-0.8372137546539307],
		"bufferView":13,
		"type":"VEC3",
		"max":[6.047279357910156,
		1.296560287475586,
		1.9254629611968995],
		"componentType":5126,
		"count":23040,
		"byteOffset":0
	},
	{
		"min":[-0.998973548412323,
		-0.999778151512146,
		-0.9867374897003174],
		"bufferView":13,
		"type":"VEC3",
		"max":[0.9999399781227112,
		0.9984026551246643,
		0.9876135587692261],
		"componentType":5126,
		"count":23040,
		"byteOffset":12
	},
	{
		"min":[0.024456024169921876,
		0.060263633728027347],
		"bufferView":13,
		"type":"VEC2",
		"max":[0.9804840087890625,
		0.5951080322265625],
		"componentType":5126,
		"count":23040,
		"byteOffset":24
	}],
	"bufferViews":[{
		"buffer":0,
		"byteOffset":0,
		"byteLength":4440,
		"target":34963
	},
	{
		"buffer":0,
		"byteOffset":4440,
		"byteLength":71040,
		"target":34962,
		"byteStride":32
	},
	{
		"buffer":1,
		"byteOffset":0,
		"byteLength":1872,
		"target":34963
	},
	{
		"buffer":1,
		"byteOffset":1872,
		"byteLength":29952,
		"target":34962,
		"byteStride":32
	},
	{
		"buffer":2,
		"byteOffset":0,
		"byteLength":1088
	},
	{
		"buffer":2,
		"byteOffset":1088,
		"byteLength":1260
	},
	{
		"buffer":3,
		"byteOffset":0,
		"byteLength":1088
	},
	{
		"buffer":4,
		"byteOffset":0,
		"byteLength":1088
	},
	{
		"buffer":5,
		"byteOffset":0,
		"byteLength":4560,
		"target":34963
	},
	{
		"buffer":5,
		"byteOffset":4560,
		"byteLength":72960,
		"target":34962,
		"byteStride":32
	},
	{
		"buffer":6,
		"byteOffset":0,
		"byteLength":23040,
		"target":34963
	},
	{
		"buffer":6,
		"byteOffset":23040,
		"byteLength":368640,
		"target":34962,
		"byteStride":32
	},
	{
		"buffer":7,
		"byteOffset":0,
		"byteLength":46080,
		"target":34963
	},
	{
		"buffer":7,
		"byteOffset":46080,
		"byteLength":737280,
		"target":34962,
		"byteStride":32
	}],
	"buffers":[{
		"uri":"data:application/octet-stream;base64,",
		"byteLength":75480
	},
	{
		"uri":"data:application/octet-stream;base64,",
		"byteLength":31824
	},
	{
		"uri":"data:application/octet-stream;base64,",
		"byteLength":2348
	},
	{
		"uri":"data:application/octet-stream;base64,",
		"byteLength":1088
	},
	{
		"uri":"data:application/octet-stream;base64,",
		"byteLength":1088
	},
	{
		"uri":"data:application/octet-stream;base64,",
		"byteLength":77520
	},
	{
		"uri":"data:application/octet-stream;base64,",
		"byteLength":391680
	},
	{
		"uri":"data:application/octet-stream;base64,",
		"byteLength":783360
	}],
	"materials":[{
		"pbrMetallicRoughness":{
			"baseColorFactor":[1.0,
			1.0,
			1.0,
			1.0],
			"metallicFactor":1.0,
			"roughnessFactor":1.0
		},
		"emissiveFactor":[0.0,
		0.0,
		0.0],
		"alphaMode":"OPAQUE",
		"doubleSided":false,
		"name":""
	},
	{
		"pbrMetallicRoughness":{
			"baseColorFactor":[1.0,
			1.0,
			1.0,
			1.0],
			"metallicFactor":1.0,
			"roughnessFactor":1.0
		},
		"emissiveFactor":[0.0,
		0.0,
		0.0],
		"alphaMode":"OPAQUE",
		"doubleSided":false,
		"name":""
	},
	{
		"pbrMetallicRoughness":{
			"baseColorFactor":[1.0,
			1.0,
			1.0,
			1.0],
			"metallicFactor":1.0,
			"roughnessFactor":1.0
		},
		"emissiveFactor":[0.0,
		0.0,
		0.0],
		"alphaMode":"OPAQUE",
		"doubleSided":false,
		"name":""
	},
	{
		"pbrMetallicRoughness":{
			"baseColorFactor":[1.0,
			1.0,
			1.0,
			1.0],
			"metallicFactor":1.0,
			"roughnessFactor":1.0
		},
		"emissiveFactor":[0.0,
		0.0,
		0.0],
		"alphaMode":"OPAQUE",
		"doubleSided":false,
		"name":""
	},
	{
		"pbrMetallicRoughness":{
			"baseColorFactor":[1.0,
			1.0,
			1.0,
			1.0],
			"metallicFactor":1.0,
			"roughnessFactor":1.0
		},
		"emissiveFactor":[0.0,
		0.0,
		0.0],
		"alphaMode":"OPAQUE",
		"doubleSided":false,
		"name":""
	}],
	"animations":[{
		"samplers":[{
			"input":8,
			"interpolation":"LINEAR",
			"output":9
		},
		{
			"input":10,
			"interpolation":"LINEAR",
			"output":11
		},
		{
			"input":12,
			"interpolation":"LINEAR",
			"output":13
		},
		{
			"input":14,
			"interpolation":"LINEAR",
			"output":15
		}],
		"channels":[{
			"sampler":0,
			"target":{
				"node":11,
				"path":"translation"
			}
		},
		{
			"sampler":1,
			"target":{
				"node":11,
				"path":"rotation"
			}
		},
		{
			"sampler":2,
			"target":{
				"node":12,
				"path":"translation"
			}
		},
		{
			"sampler":3,
			"target":{
				"node":13,
				"path":"translation"
			}
		}]
	}]
}