{
	"asset":{
		"version":"2.0",
		"generator":"SideFX Software Houdini 19.5.773",
		"copyright":""
	},
	"scenes":[{
		"nodes":[0]
	}],
	"nodes":[{
		"name":"Scene 0",
		"children":[1]
	},
	{
		"name":"OSG_Scene",
		"children":[2]
	},
	{
		"name":"RootNode (gltf orientation matrix)",
		"translation":[0.0,
		0.0,
		0.0],
		"rotation":[0.7071067690849304,
		0.0,
		0.0,
		-0.7071067690849304],
		"scale":[1.0,
		0.9999999403953552,
		0.9999999403953552],
		"children":[3]
	},
	{
		"name":"RootNode (model correction matrix)",
		"children":[4]
	},
	{
		"name":"magnemite animado 2.fbx",
		"translation":[0.0,
		0.0,
		0.0],
		"rotation":[-0.7071067690849304,
		0.0,
		0.0,
		-0.7071067690849304],
		"scale":[1.0,
		0.9999999403953552,
		0.9999999403953552],
		"children":[5]
	},
	{
		"name":"Node_3",
		"children":[6]
	},
	{
		"name":"RootNode",
		"children":[7]
	},
	{
		"name":"Node_5",
		"children":[8,
		9,
		10]
	},
	{
		"name":"Mesh",
		"mesh":0
	},
	{
		"name":"Mesh",
		"mesh":1
	},
	{
		"name":"cuerpo",
		"children":[11,
		12,
		13]
	},
	{
		"name":"ojo",
		"translation":[0.0,
		5.987430095672607,
		1.574657917022705],
		"rotation":[-0.7071067690849304,
		0.0,
		0.0,
		-0.7071067690849304],
		"scale":[1.5072540044784547,
		1.4791151285171509,
		1.5072542428970338],
		"children":[14]
	},
	{
		"name":"torniglio",
		"translation":[-1.7881393432617188e-7,
		9.97221851348877,
		-2.384185791015625e-7],
		"rotation":[0.0,
		0.0,
		0.0,
		-1.0],
		"scale":[1.0,
		1.0,
		1.0],
		"children":[15]
	},
	{
		"name":"torniglio_team",
		"translation":[-1.1774451732635499,
		4.260800361633301,
		2.4956676959991457],
		"rotation":[0.8366996049880981,
		-0.0778207778930664,
		0.07888264209032059,
		0.5363349914550781],
		"scale":[0.5697518587112427,
		0.5697518587112427,
		0.5697518587112427],
		"children":[16]
	},
	{
		"name":"ojo_blinn2_0",
		"mesh":2
	},
	{
		"name":"torniglio_blinn2_0",
		"mesh":3
	},
	{
		"name":"torniglio_team_blinn2_0",
		"mesh":4
	}],
	"meshes":[{
		"name":"Mesh",
		"primitives":[{
			"attributes":{
				"POSITION":1,
				"NORMAL":2,
				"TEXCOORD_0":3
			},
			"indices":0,
			"material":0
		}]
	},
	{
		"name":"Mesh",
		"primitives":[{
			"attributes":{
				"POSITION":5,
				"NORMAL":6,
				"TEXCOORD_0":7
			},
			"indices":4,
			"material":0
		}]
	},
	{
		"name":"ojo_blinn2_0",
		"primitives":[{
			"attributes":{
				"POSITION":9,
				"NORMAL":10,
				"TEXCOORD_0":11
			},
			"indices":8,
			"material":0
		}]
	},
	{
		"name":"torniglio_blinn2_0",
		"primitives":[{
			"attributes":{
				"POSITION":13,
				"NORMAL":14,
				"TEXCOORD_0":15
			},
			"indices":12,
			"material":0
		}]
	},
	{
		"name":"torniglio_team_blinn2_0",
		"primitives":[{
			"attributes":{
				"POSITION":17,
				"NORMAL":18,
				"TEXCOORD_0":19
			},
			"indices":16,
			"material":0
		}]
	}],
	"accessors":[{
		"bufferView":0,
		"type":"SCALAR",
		"componentType":5123,
		"count":936,
		"byteOffset":0,
		"min":[0],
		"max":[935]
	},
	{
		"bufferView":1,
		"type":"VEC3",
		"componentType":5126,
		"count":936,
		"byteOffset":0,
		"min":[-6.77100133895874,
		4.192430019378662,
		-0.5],
		"max":[6.77100133895874,
		7.692430019378662,
		0.5]
	},
	{
		"bufferView":1,
		"type":"VEC3",
		"componentType":5126,
		"count":936,
		"byteOffset":12,
		"min":[-1.0,
		-1.0,
		-1.0],
		"max":[1.0,
		1.0,
		1.0]
	},
	{
		"bufferView":1,
		"type":"VEC2",
		"componentType":5126,
		"count":936,
		"byteOffset":24,
		"min":[0.14503860473632813,
		0.11033248901367188],
		"max":[0.9209747314453125,
		0.8488006591796875]
	},
	{
		"bufferView":2,
		"type":"SCALAR",
		"componentType":5123,
		"count":2220,
		"byteOffset":0,
		"min":[0],
		"max":[2219]
	},
	{
		"bufferView":3,
		"type":"VEC3",
		"componentType":5126,
		"count":2220,
		"byteOffset":0,
		"min":[-2.8559718132019045,
		3.2124760150909426,
		-2.8559725284576418],
		"max":[2.855971097946167,
		8.924418449401856,
		2.6009621620178224]
	},
	{
		"bufferView":3,
		"type":"VEC3",
		"componentType":5126,
		"count":2220,
		"byteOffset":12,
		"min":[-1.0,
		-1.0,
		-1.0],
		"max":[1.0,
		1.0,
		0.9847478270530701]
	},
	{
		"bufferView":3,
		"type":"VEC2",
		"componentType":5126,
		"count":2220,
		"byteOffset":24,
		"min":[0.2975311279296875,
		0.27553558349609377],
		"max":[0.700531005859375,
		0.5580291748046875]
	},
	{
		"bufferView":4,
		"type":"SCALAR",
		"componentType":5123,
		"count":2280,
		"byteOffset":0,
		"min":[0],
		"max":[2279]
	},
	{
		"bufferView":5,
		"type":"VEC3",
		"componentType":5126,
		"count":2280,
		"byteOffset":0,
		"min":[-1.000000238418579,
		-1.0,
		-1.0000004768371583],
		"max":[1.0,
		1.0,
		1.0000001192092896]
	},
	{
		"bufferView":5,
		"type":"VEC3",
		"componentType":5126,
		"count":2280,
		"byteOffset":12,
		"min":[-1.0,
		-1.0,
		-1.0],
		"max":[1.0,
		1.0,
		1.0]
	},
	{
		"bufferView":5,
		"type":"VEC2",
		"componentType":5126,
		"count":2280,
		"byteOffset":24,
		"min":[0.4042510986328125,
		0.07342910766601563],
		"max":[0.5829315185546875,
		0.252105712890625]
	},
	{
		"bufferView":6,
		"type":"SCALAR",
		"componentType":5123,
		"count":11520,
		"byteOffset":0,
		"min":[0],
		"max":[11519]
	},
	{
		"bufferView":7,
		"type":"VEC3",
		"componentType":5126,
		"count":11520,
		"byteOffset":0,
		"min":[-1.297445297241211,
		-1.3974108695983887,
		-1.277778148651123],
		"max":[1.297445297241211,
		1.3974108695983887,
		1.277778148651123]
	},
	{
		"bufferView":7,
		"type":"VEC3",
		"componentType":5126,
		"count":11520,
		"byteOffset":12,
		"min":[-1.0,
		-1.0,
		-1.0],
		"max":[1.0,
		1.0,
		1.0]
	},
	{
		"bufferView":7,
		"type":"VEC2",
		"componentType":5126,
		"count":11520,
		"byteOffset":24,
		"min":[0.40966033935546877,
		0.697509765625],
		"max":[0.9841461181640625,
		0.9715423583984375]
	},
	{
		"bufferView":8,
		"type":"SCALAR",
		"componentType":5123,
		"count":23040,
		"byteOffset":0,
		"min":[0],
		"max":[23039]
	},
	{
		"bufferView":9,
		"type":"VEC3",
		"componentType":5126,
		"count":23040,
		"byteOffset":0,
		"min":[-2.0541346073150636,
		-2.6589465141296388,
		-0.8372137546539307],
		"max":[6.047279357910156,
		1.296560287475586,
		1.9254629611968995]
	},
	{
		"bufferView":9,
		"type":"VEC3",
		"componentType":5126,
		"count":23040,
		"byteOffset":12,
		"min":[-0.998973548412323,
		-0.9997788667678833,
		-0.9867439270019531],
		"max":[0.9999400973320007,
		0.9984026551246643,
		0.9876135587692261]
	},
	{
		"bufferView":9,
		"type":"VEC2",
		"componentType":5126,
		"count":23040,
		"byteOffset":24,
		"min":[0.024456024169921876,
		0.060263633728027347],
		"max":[0.9804840087890625,
		0.5951080322265625]
	}],
	"bufferViews":[{
		"buffer":0,
		"byteOffset":0,
		"byteLength":1872,
		"target":34963
	},
	{
		"buffer":0,
		"byteOffset":1872,
		"byteLength":29952,
		"target":34962,
		"byteStride":32
	},
	{
		"buffer":1,
		"byteOffset":0,
		"byteLength":4440,
		"target":34963
	},
	{
		"buffer":1,
		"byteOffset":4440,
		"byteLength":71040,
		"target":34962,
		"byteStride":32
	},
	{
		"buffer":2,
		"byteOffset":0,
		"byteLength":4560,
		"target":34963
	},
	{
		"buffer":2,
		"byteOffset":4560,
		"byteLength":72960,
		"target":34962,
		"byteStride":32
	},
	{
		"buffer":3,
		"byteOffset":0,
		"byteLength":23040,
		"target":34963
	},
	{
		"buffer":3,
		"byteOffset":23040,
		"byteLength":368640,
		"target":34962,
		"byteStride":32
	},
	{
		"buffer":4,
		"byteOffset":0,
		"byteLength":46080,
		"target":34963
	},
	{
		"buffer":4,
		"byteOffset":46080,
		"byteLength":737280,
		"target":34962,
		"byteStride":32
	}],
	"buffers":[{
		"uri":"data:application/octet-stream;base64,",
		"byteLength":31824
	},
	{
		"uri":"data:application/octet-stream;base64,",
		"byteLength":75480
	},
	{
		"uri":"data:application/octet-stream;base64,",
		"byteLength":77520
	},
	{
		"uri":"data:application/octet-stream;base64,",
		"byteLength":391680
	},
	{
		"uri":"data:application/octet-stream;base64,",
		"byteLength":783360
	}],
	"materials":[{
		"doubleSided":false,
		"pbrMetallicRoughness":{
			"baseColorFactor":[0.21404114365577699,
			0.21404114365577699,
			0.21404114365577699,
			1.0],
			"metallicFactor":0.0,
			"roughnessFactor":0.20000000298023225
		},
		"emissiveFactor":[0.0,
		0.0,
		0.0],
		"alphaMode":"OPAQUE",
		"name":"Mat"
	}]
}